<?xml version="1.0" standalone="no"?>
<!DOCTYPE svg PUBLIC "-//W3C//DTD SVG 20010904//EN"
 "http://www.w3.org/TR/2001/REC-SVG-20010904/DTD/svg10.dtd">
<svg version="1.0" xmlns="http://www.w3.org/2000/svg"
 width="720.000000pt" height="720.000000pt" viewBox="0 0 720.000000 720.000000"
 preserveAspectRatio="xMidYMid meet">
<metadata>
Created by potrace 1.11, written by Peter Selinger 2001-2013
</metadata>
<g transform="translate(0.000000,720.000000) scale(0.100000,-0.100000)"
fill="#000000" stroke="none">
<path d="M3406 7088 c-10 -57 -19 -112 -21 -123 -5 -28 -14 -76 -20 -101 -3
-12 -7 -39 -10 -60 -4 -21 -8 -46 -10 -54 -3 -8 -7 -33 -10 -55 -7 -45 -8 -51
-36 -195 -11 -58 -22 -117 -24 -132 -10 -66 -47 -263 -51 -269 -2 -4 -6 -26
-8 -50 -3 -24 -8 -55 -11 -69 -3 -14 -8 -41 -11 -60 -4 -19 -8 -44 -11 -55 -2
-11 -6 -35 -9 -54 -3 -18 -8 -43 -11 -55 -2 -11 -6 -34 -9 -50 -2 -16 -22
-126 -44 -245 -22 -119 -42 -229 -45 -246 -5 -28 -8 -47 -20 -105 -2 -14 -7
-38 -10 -55 -3 -16 -7 -41 -10 -55 -3 -14 -10 -52 -16 -85 -10 -56 -13 -72
-23 -127 -2 -13 -7 -41 -11 -63 -4 -22 -9 -48 -11 -58 -8 -44 -16 -58 -32 -53
-19 6 -445 114 -477 121 -11 2 -35 8 -52 14 -18 5 -33 8 -33 5 0 -3 -8 0 -17
5 -10 5 -31 11 -48 14 -16 3 -75 17 -130 32 -55 14 -110 28 -122 31 -13 2 -85
20 -160 40 -76 19 -149 37 -163 40 -14 3 -61 14 -105 25 -44 12 -87 22 -95 24
-8 2 -71 17 -140 35 -69 18 -132 34 -140 36 -8 2 -52 13 -97 24 -46 11 -120
29 -165 40 -46 11 -90 22 -98 24 -8 2 -33 9 -55 15 -22 6 -49 12 -60 14 -11 2
-27 7 -35 10 -13 5 -45 12 -135 32 -11 2 -45 11 -75 20 -116 32 -131 28 -71
-20 14 -11 62 -51 106 -89 91 -78 106 -90 195 -166 36 -30 67 -57 70 -60 3 -3
30 -25 60 -50 84 -69 102 -84 119 -100 9 -9 45 -40 81 -70 36 -30 67 -57 70
-60 3 -3 64 -55 135 -115 72 -60 132 -112 135 -115 3 -3 79 -68 170 -145 91
-76 167 -141 170 -144 3 -3 32 -28 65 -55 33 -28 68 -57 77 -65 19 -18 22 -20
111 -94 34 -28 76 -64 92 -78 17 -15 41 -37 55 -48 14 -11 32 -26 40 -34 8 -7
46 -40 85 -72 123 -106 114 -90 74 -131 -19 -20 -74 -78 -124 -129 -49 -51
-182 -188 -295 -305 -113 -117 -243 -253 -290 -301 -47 -48 -168 -174 -270
-280 -102 -105 -228 -236 -280 -289 -52 -54 -174 -180 -270 -280 -96 -100
-194 -202 -218 -226 -24 -24 -37 -44 -29 -44 7 0 17 4 23 9 5 5 27 14 49 21
22 7 90 30 150 52 61 22 117 42 125 44 8 2 87 30 175 62 88 32 203 73 255 91
52 18 104 36 115 41 11 5 52 20 90 33 39 14 97 35 130 47 33 12 65 23 70 25
13 3 44 14 70 25 11 5 70 26 130 46 61 20 118 41 128 46 10 5 26 11 35 13 9 2
69 22 132 46 63 23 121 42 128 42 6 0 12 4 12 9 0 4 6 8 13 8 7 0 103 32 213
71 109 39 248 89 308 110 60 21 110 38 111 36 3 -6 38 -123 39 -134 1 -7 5
-16 9 -19 4 -4 7 -19 7 -34 0 -15 3 -30 7 -34 4 -3 8 -12 9 -19 2 -7 15 -52
29 -102 15 -49 30 -103 35 -120 4 -16 15 -55 24 -85 9 -30 18 -64 21 -75 3
-11 14 -49 25 -85 11 -36 22 -75 24 -87 3 -12 9 -30 15 -41 6 -11 8 -22 4 -25
-3 -4 0 -13 7 -22 7 -8 10 -15 7 -15 -3 0 4 -28 15 -62 11 -35 21 -70 23 -78
10 -37 73 -257 100 -350 9 -30 18 -62 20 -70 2 -8 4 -15 5 -15 1 0 3 -7 5 -15
1 -8 17 -64 35 -125 17 -60 33 -117 35 -125 2 -8 22 -78 45 -155 22 -77 42
-149 44 -160 3 -11 5 -21 7 -22 1 -2 3 -7 4 -13 1 -5 3 -11 5 -12 1 -2 3 -10
5 -18 1 -8 15 -55 30 -105 14 -50 28 -101 31 -114 3 -14 7 -28 10 -33 3 -4 7
-16 9 -25 33 -140 32 -139 51 -53 11 49 11 51 18 90 10 57 16 93 21 120 9 43
13 66 19 101 3 19 15 84 26 144 11 61 23 126 26 145 2 19 7 43 10 53 3 10 7
30 9 45 3 22 24 141 41 227 2 11 9 47 14 80 6 33 24 130 40 215 16 85 31 169
34 185 4 28 17 95 31 170 20 104 27 142 30 160 4 29 14 82 25 140 5 28 12 66
15 85 3 19 8 42 10 50 2 8 7 35 10 60 4 24 8 47 10 50 2 3 6 27 9 54 3 26 8
51 11 56 3 4 7 25 10 46 5 37 8 56 20 114 3 14 7 42 9 62 6 47 12 58 34 53 55
-12 312 -77 337 -85 17 -5 41 -11 55 -14 25 -5 119 -28 193 -46 77 -20 113
-29 142 -36 17 -4 37 -9 45 -11 8 -3 22 -6 30 -7 8 -1 25 -6 37 -10 12 -4 30
-9 42 -11 11 -2 46 -10 78 -19 51 -13 108 -27 123 -30 3 -1 28 -7 55 -14 75
-20 117 -30 150 -38 39 -9 44 -11 48 -14 1 -1 11 -3 22 -5 24 -4 46 -9 106
-25 24 -6 61 -16 82 -21 20 -5 54 -13 75 -19 30 -8 187 -47 262 -65 184 -44
280 -68 300 -74 22 -8 79 -21 150 -37 14 -3 30 -6 35 -7 6 -2 16 -6 23 -10 6
-5 12 -6 12 -3 0 3 12 1 28 -5 38 -15 82 -19 82 -8 0 5 -3 9 -7 9 -5 0 -27 17
-50 38 -23 20 -59 51 -80 69 -21 17 -53 44 -70 60 -36 31 -55 47 -129 110 -27
23 -59 50 -70 60 -12 10 -43 36 -69 58 -25 21 -57 48 -69 60 -13 11 -42 36
-66 55 -23 19 -52 43 -64 53 -11 10 -43 37 -71 60 -27 23 -61 53 -76 67 -15
14 -36 32 -46 40 -10 8 -59 49 -108 90 -49 41 -98 82 -108 90 -10 8 -31 26
-46 40 -15 14 -51 45 -80 70 -30 25 -62 52 -73 62 -10 9 -38 31 -60 50 -23 18
-49 40 -57 49 -9 8 -43 37 -76 65 -33 27 -65 54 -71 59 -59 53 -141 123 -158
134 -11 8 -27 22 -36 30 -9 9 -38 35 -66 58 -27 23 -62 53 -79 68 -16 15 -45
38 -62 52 -18 14 -33 28 -33 32 0 6 31 38 430 451 119 124 243 252 275 285 31
33 157 163 279 289 121 126 250 259 286 296 376 391 471 489 508 526 24 24 42
44 40 44 -3 0 -49 -16 -104 -36 -54 -19 -106 -37 -114 -39 -8 -2 -28 -9 -45
-16 -16 -6 -34 -13 -40 -15 -17 -5 -115 -40 -220 -79 -55 -20 -120 -43 -145
-51 -58 -20 -209 -74 -235 -84 -21 -9 -308 -110 -385 -137 -25 -8 -54 -19 -65
-23 -11 -5 -92 -34 -180 -65 -88 -31 -185 -66 -215 -77 -30 -11 -138 -49 -240
-84 -102 -36 -194 -69 -205 -74 -11 -5 -60 -23 -110 -40 -49 -17 -107 -38
-129 -46 -21 -8 -40 -13 -42 -12 -2 3 -56 188 -69 238 -10 40 -38 137 -43 150
-3 8 -6 20 -8 25 -1 6 -9 33 -17 60 -8 28 -26 91 -40 140 -14 50 -60 209 -102
355 -42 146 -79 274 -82 285 -3 11 -21 74 -40 140 -19 66 -44 152 -54 190 -26
94 -26 93 -44 153 -8 28 -22 76 -30 105 -9 28 -18 59 -20 67 -2 8 -13 47 -24
85 -11 39 -27 95 -36 125 -20 70 -21 73 -40 145 -9 33 -19 67 -22 75 -3 8 -7
20 -8 25 -6 26 -46 155 -48 155 -2 0 -11 -46 -21 -102z"/>
</g>
</svg>
