<svg xmlns="http://www.w3.org/2000/svg" width="696" height="546.071" viewBox="0 0 696 546.071">
  <g id="Group_66" data-name="Group 66" transform="translate(0)">
    <path id="Path_108" data-name="Path 108" d="M326.207,249.137l-82.481,68.4a37.354,37.354,0,1,1-57.444,47.639L112.334,426.5,230.871,569.439,444.744,392.072Z" transform="translate(-99.725 -114.244)" fill="#f2f2f2"/>
    <path id="Path_109" data-name="Path 109" d="M1004.138,463.109c0,84.482-50.224,113.98-112.177,113.98s-112.178-29.5-112.178-113.98S891.961,271.151,891.961,271.151,1004.138,378.626,1004.138,463.109Z" transform="translate(-308.138 -121.118)" fill="#f2f2f2"/>
    <path id="Path_110" data-name="Path 110" d="M822.48,511.166l1.148-70.7,47.813-87.471-47.633,76.38.516-31.792,32.953-63.284-32.816,54.871h0l.928-57.179,35.286-50.382L825.537,323l.58-104.845-3.648,138.8.3-5.726-35.876-54.913,35.3,65.9-3.343,63.859-.1-1.7-41.358-57.789,41.232,63.777-.417,7.986-.075.12.034.655L809.687,601.14h11.331l1.359-83.684,41.132-63.62Z" transform="translate(-242.744 -68.118)" fill="#3f3d56"/>
    <ellipse id="Ellipse_19" data-name="Ellipse 19" cx="156.806" cy="11.692" rx="156.806" ry="11.692" transform="translate(329.431 522.688)" fill="#3f3d56"/>
    <rect id="Rectangle_126" data-name="Rectangle 126" width="24.759" height="537.818" transform="translate(475.921)" fill="#3f3d56"/>
    <path id="Path_111" data-name="Path 111" d="M989.839,786.17c0,15.453-9.186,20.848-20.518,20.848q-.394,0-.786-.009c-.525-.011-1.045-.036-1.559-.071-10.227-.724-18.173-6.4-18.173-20.768,0-14.873,19.005-33.639,20.433-35.028l0,0,.083-.08S989.839,770.718,989.839,786.17Z" transform="translate(-360.915 -270.971)" fill="#8fcae7"/>
    <path id="Path_112" data-name="Path 112" d="M973.808,804.654l7.5-10.486-7.523,11.637-.02,1.2c-.525-.011-1.045-.036-1.559-.071l.809-15.46-.006-.12.014-.022.076-1.46-7.542-11.666,7.566,10.57.017.31.611-11.681L967.3,765.354l6.536,10,.636-24.217,0-.083v.08l-.106,19.1,6.428-7.571-6.454,9.216-.17,10.458,6-10.037-6.027,11.576-.095,5.814,8.713-13.97-8.746,16Z" transform="translate(-366.148 -270.971)" fill="#3f3d56"/>
    <path id="Path_113" data-name="Path 113" d="M740.691,783.81l-4.389-3.261s-2.905,16.228.337,18.66,15.4,6.484,15.4,11.347,27.556,11.347,28.367,4.052-2.431-11.347-2.431-11.347-12.968-12.968-14.589-15.4-5.673-7.294-5.673-7.294Z" transform="translate(-294.187 -280.179)" fill="#2f2e41"/>
    <path id="Path_114" data-name="Path 114" d="M805.189,487.805s-.122.713-.332,2.018c-.195,1.159-.462,2.8-.786,4.814-3.4,20.773-13.333,81.924-12.66,83.942.81,2.431,6.484,11.347,0,13.778a5.028,5.028,0,0,0-2.018,2.2,47.1,47.1,0,0,0-3.428,8.089c-3.866,11.217-8,29.169-10.39,41.6-1.046,5.463-1.759,9.855-1.969,12.157a6.609,6.609,0,0,0-.024,1.6c.811,3.242-4.863,14.589-7.294,17.831s-6.484,6.484-5.673,9.726-20.262,12.157-22.694,6.484-2.431-8.915-3.242-10.536-1.621-12.968,2.431-14.589,1.621-29.988,5.673-35.661c1.353-1.888,3.42-8.283,5.584-15.975.851-3.015,1.71-6.225,2.553-9.442,3.42-13.187,6.451-26.454,6.451-26.454l-.811-94.826,44.577-5.673,1.143,2.521,2.277,5Z" transform="translate(-293.847 -185.985)" fill="#2f2e41"/>
    <path id="Path_115" data-name="Path 115" d="M836.991,716.81s6.484-6.484,9.726,0,6.484,31.609,12.157,37.282,12.968,34.04,4.863,35.661-17.02-2.431-17.831-7.294-17.831-29.988-17.831-32.419,11.347-11.347,11.347-11.347Z" transform="translate(-323.218 -259.377)" fill="#2f2e41"/>
    <path id="Path_116" data-name="Path 116" d="M696.088,426.027s10.536,94.827,12.968,103.742,15.4,42.956,19.452,48.629,29.988,51.871,33.23,54.3,9.726,8.915,9.726,8.915,12.157,12.157,13.778,14.589,15.4-4.863,16.21-9.726-.81-12.968-1.621-16.21,1.621-8.1-.81-10.536-14.589-14.589-14.589-20.262-21.073-38.9-29.177-46.2-6.484-19.452-6.484-19.452v-49.44L793.346,470.6s-2.431-38.9-8.1-38.9S705,418.733,696.088,426.027Z" transform="translate(-282.004 -168.784)" fill="#2f2e41"/>
    <circle id="Ellipse_20" data-name="Ellipse 20" cx="26.746" cy="26.746" r="26.746" transform="translate(452.988 68.401)" fill="#9f616a"/>
    <path id="Path_117" data-name="Path 117" d="M774.946,215.721s-3.242,12.157-7.294,15.4,10.536,17.02,10.536,17.02l27.556,1.621,4.863-15.4s-8.915-17.831-6.484-29.177S774.946,215.721,774.946,215.721Z" transform="translate(-304.128 -99.501)" fill="#9f616a"/>
    <path id="Path_118" data-name="Path 118" d="M742.52,242.02s7.294.81,8.915,3.242,12.968,9.726,21.883,8.1,14.589-4.052,16.21-3.242,4.863,17.831,4.863,17.831l-8.915,25.935,1.621,71.323,2.431,19.452s4.863-6.484-14.589-2.431-44.577-3.242-52.681-4.052-21.883-3.242-22.693-8.1S702,347.383,702,347.383l12.968-54.3,8.1-29.177Z" transform="translate(-283.049 -112.022)" fill="#3f3d56"/>
    <path id="Path_119" data-name="Path 119" d="M742.9,235.911s-6.856-3.636-9.287-.394-33.23,8.1-33.23,10.536-6.484,68.081-4.863,73.754-3.242,12.157-3.242,12.157L686.6,356.279s-15.4,46.2-8.915,47.818,12.157,0,14.589,0,1.621-30.8,8.1-38.9,15.4-28.367,17.02-32.419,21.883-59.976,21.073-66.46S742.9,235.911,742.9,235.911Z" transform="translate(-275.761 -109.571)" fill="#d0cde1"/>
    <path id="Path_120" data-name="Path 120" d="M814.311,242.02s6.484,0,7.294,1.621,8.915,12.157,12.157,14.589,14.589,12.967,14.589,15.4-23.5,20.262-23.5,20.262-9.726,47.819-4.863,64.028,12.157,55.113,8.915,57.544-10.536,3.242-10.536,0-4.863-38.093-8.915-45.387-16.21-53.492-11.347-66.46S814.311,242.02,814.311,242.02Z" transform="translate(-313.505 -112.022)" fill="#d0cde1"/>
    <path id="Path_121" data-name="Path 121" d="M666.618,358.687s-.81,25.125,8.1,38.093a154.027,154.027,0,0,1,14.589,27.556s14.589-4.052,17.02-8.915,17.831-.81,17.831-2.431-18.641-9.725-20.262-11.346-7.294-1.621-10.536-4.863-4.052-10.536-4.052-10.536l-3.242-21.073Z" transform="translate(-272.796 -148.452)" fill="#9f616a"/>
    <path id="Path_122" data-name="Path 122" d="M760.29,156.011a15.413,15.413,0,0,1-6-1.373c-4.075-2.2-5.155-8.455-2.053-11.892a15.367,15.367,0,0,1,2.849-2.291l6.161-4.193c2.725-1.855,5.514-3.74,8.692-4.614a27.133,27.133,0,0,1,8.886-.525,60.039,60.039,0,0,1,17.021,3.095,28.485,28.485,0,0,1,13.791,10.092c5.216,7.547,5.288,17.727,2.415,26.44s-8.33,16.3-13.708,23.734l-2.79-13.614a5.025,5.025,0,0,0-1.578-3.259c-2.507-1.784-5.573,1.879-8.649,1.855-1.977-.015-3.636-1.641-4.385-3.47a19.777,19.777,0,0,1-.972-5.824C779.6,166,778.146,160.2,774.2,157.9,770.516,155.754,764.427,156.387,760.29,156.011Z" transform="translate(-298.978 -77.356)" fill="#2f2e41"/>
    <path id="Path_123" data-name="Path 123" d="M766.94,492.691s2.737,79.178,4.358,81.61,0-81.859,0-81.859Z" transform="translate(-304.128 -190.217)" opacity="0.1"/>
    <path id="Path_124" data-name="Path 124" d="M701.127,251.447h-6.484s-27.556,37.282-24.314,39.714,0,8.915,0,8.915l-6.484,12.157s-8.1,7.294-5.673,8.915,5.673,8.1,5.673,8.1,16.21-2.431,21.073,7.294l10.512-13.27Z" transform="translate(-270.022 -114.966)" fill="#d0cde1"/>
    <path id="Path_125" data-name="Path 125" d="M782.454,332.663s-17.831.81-38.093-12.157L724.1,311.59s-17.831-27.556-19.452-22.693,2.431,14.589,2.431,14.589S682.626,314.8,681.991,316.3s13.742-2.276,13.742-2.276-2.431,15.4,11.347,16.21S724.91,327.8,724.91,327.8s58.355,48.629,68.081,33.23S782.454,332.663,782.454,332.663Z" transform="translate(-277.596 -126.48)" fill="#9f616a"/>
    <path id="Path_126" data-name="Path 126" d="M847.261,283.266l8.915,3.242v24.314l3.242,4.863s-.81,9.726-3.242,12.157-7.294,1.621-5.673,7.294a30.719,30.719,0,0,1,.81,11.347s-14.589,18.641-15.4,16.21-12.157-32.419-13.778-32.419,16.21-47.008,16.21-47.008Z" transform="translate(-321.33 -124.901)" fill="#d0cde1"/>
    <path id="Path_127" data-name="Path 127" d="M701.313,455.4s-8.38-8.1-4.19-8.51,18.779-8.51,21.21-4.458S701.313,455.4,701.313,455.4Z" transform="translate(-281.961 -174.249)" fill="#2f2e41"/>
    <path id="Path_128" data-name="Path 128" d="M385.41,700.273a156.806,156.806,0,1,0-269.207,0Z" transform="translate(-94 -181.024)" fill="#3f3d56"/>
    <circle id="Ellipse_21" data-name="Ellipse 21" cx="15.13" cy="15.13" r="15.13" transform="translate(141.676 413.336)" fill="#8fcae7"/>
    <circle id="Ellipse_22" data-name="Ellipse 22" cx="7.565" cy="7.565" r="7.565" transform="translate(28.885 445.66)" fill="#8fcae7"/>
    <circle id="Ellipse_23" data-name="Ellipse 23" cx="7.565" cy="7.565" r="7.565" transform="translate(33.324 380.136)" fill="#8fcae7"/>
    <circle id="Ellipse_24" data-name="Ellipse 24" cx="7.565" cy="7.565" r="7.565" transform="translate(70.876 326.257)" fill="#8fcae7"/>
    <circle id="Ellipse_25" data-name="Ellipse 25" cx="7.565" cy="7.565" r="7.565" transform="translate(130.815 299.415)" fill="#8fcae7"/>
    <circle id="Ellipse_26" data-name="Ellipse 26" cx="7.565" cy="7.565" r="7.565" transform="translate(196.017 307.276)" fill="#8fcae7"/>
    <circle id="Ellipse_27" data-name="Ellipse 27" cx="7.565" cy="7.565" r="7.565" transform="translate(247.857 347.598)" fill="#8fcae7"/>
    <circle id="Ellipse_28" data-name="Ellipse 28" cx="7.565" cy="7.565" r="7.565" transform="translate(271.525 408.859)" fill="#8fcae7"/>
    <circle id="Ellipse_29" data-name="Ellipse 29" cx="7.565" cy="7.565" r="7.565" transform="translate(260.262 473.56)" fill="#8fcae7"/>
    <line id="Line_4" data-name="Line 4" y1="59.146" x2="77.715" transform="translate(156.806 369.32)" fill="none" stroke="#8fcae7" stroke-miterlimit="10" stroke-width="4"/>
    <circle id="Ellipse_30" data-name="Ellipse 30" cx="10.148" cy="10.148" r="10.148" transform="translate(218.557 126.268)" fill="none" stroke="#3f3d56" stroke-miterlimit="10" stroke-width="2"/>
    <circle id="Ellipse_31" data-name="Ellipse 31" cx="10.148" cy="10.148" r="10.148" transform="translate(276.327 244.56)" fill="#3f3d56"/>
    <circle id="Ellipse_32" data-name="Ellipse 32" cx="29.42" cy="29.42" r="29.42" transform="translate(86.275 198.339)" fill="#f2f2f2"/>
  </g>
</svg>
