<svg xmlns="http://www.w3.org/2000/svg" viewBox="0 0 192.82 112.24"><defs><style>.cls-1{fill:#a2d3ec;}.cls-2{fill:#ec1e24;}.cls-3{fill:#fff;}</style></defs><title>AOT-logo-mini</title><g id="Layer_2" data-name="Layer 2"><g id="Layer_1-2" data-name="Layer 1"><path class="cls-1" d="M61.82,75.22H20.16l-8.62,19.6H0l35.5-78.4H46.59l35.62,78.4H70.45Zm-3.92-9L41,27.84,24.08,66.26Z"/><path class="cls-1" d="M143.43,36.92h-23V16.42h72.35v20.5h-23v57.9H143.43Z"/><polygon class="cls-2" points="89.76 40.38 97.15 0 108.47 39.46 147.13 25.67 118.62 55.2 149.89 81.79 110.06 71.86 102.67 112.24 91.36 72.78 52.69 86.57 81.2 57.04 49.93 30.45 89.76 40.38"/><path class="cls-3" d="M85.66,56.12c0-7.74,6-13.47,14.25-13.47s14.25,5.69,14.25,13.47S108.1,69.59,99.91,69.59,85.66,63.86,85.66,56.12Zm22.4,0a8.15,8.15,0,1,0-16.3,0,8.15,8.15,0,1,0,16.3,0Z"/></g></g></svg>