<svg xmlns="http://www.w3.org/2000/svg" width="708.744" height="322.928" viewBox="0 0 708.744 322.928">
  <g id="Group_64" data-name="Group 64" transform="translate(0 0)">
    <path id="Path_15" data-name="Path 15" d="M175.029,571.03l-1.216-.274A276.843,276.843,0,0,1,713.7,570.02l-1.215.276C683.774,444.25,573.3,356.218,443.838,356.218,316.069,356.218,203.019,446.559,175.029,571.03Z" transform="translate(-85.103 -252.743)" fill="#3f3d56"/>
    <circle id="Ellipse_1" data-name="Ellipse 1" cx="33.857" cy="33.857" r="33.857" transform="translate(526.925 103.219)" fill="#ff6584"/>
    <rect id="Rectangle_44" data-name="Rectangle 44" width="1.247" height="49.244" transform="translate(546.674 272.438)" fill="#3f3d56"/>
    <path id="Path_16" data-name="Path 16" d="M914.239,619.29c.079,17.22-12.036,31.235-12.036,31.235s-12.243-13.9-12.323-31.123,12.036-31.235,12.036-31.235S914.16,602.071,914.239,619.29Z" transform="translate(-354.813 -340.577)" fill="#8fcae7"/>
    <path id="Path_17" data-name="Path 17" d="M914.239,619.29c.079,17.22-12.036,31.235-12.036,31.235s-12.243-13.9-12.323-31.123,12.036-31.235,12.036-31.235S914.16,602.071,914.239,619.29Z" transform="translate(-354.813 -340.577)" opacity="0.1"/>
    <circle id="Ellipse_2" data-name="Ellipse 2" cx="19.478" cy="19.478" r="19.478" transform="translate(292.832 135.574)" fill="#8fcae7" opacity="0.4"/>
    <circle id="Ellipse_3" data-name="Ellipse 3" cx="13.664" cy="13.664" r="13.664" transform="translate(262.597 150.691)" fill="#8fcae7" opacity="0.4"/>
    <circle id="Ellipse_4" data-name="Ellipse 4" cx="13.664" cy="13.664" r="13.664" transform="translate(116.11 189.962)" fill="#8fcae7" opacity="0.4"/>
    <circle id="Ellipse_5" data-name="Ellipse 5" cx="19.478" cy="19.478" r="19.478" transform="translate(514.3 133.971)" fill="#8fcae7" opacity="0.4"/>
    <path id="Path_18" data-name="Path 18" d="M87.938,693.522a12.546,12.546,0,0,0,4.673,6.321,10.8,10.8,0,0,0-3.824-14.135A12.545,12.545,0,0,0,87.938,693.522Z" transform="translate(-52.637 -377.316)" fill="#3f3d56"/>
    <path id="Path_19" data-name="Path 19" d="M86.244,695.05a12.546,12.546,0,0,1,3.251,7.156,12.546,12.546,0,0,1-7.241-3.058A12.546,12.546,0,0,1,79,691.993,12.55,12.55,0,0,1,86.244,695.05Z" transform="translate(-49.392 -379.683)" fill="#8fcae7"/>
    <path id="Path_20" data-name="Path 20" d="M699.938,693.522a12.546,12.546,0,0,0,4.673,6.321,10.8,10.8,0,0,0-3.824-14.135A12.546,12.546,0,0,0,699.938,693.522Z" transform="translate(-283.15 -377.316)" fill="#3f3d56"/>
    <path id="Path_21" data-name="Path 21" d="M698.245,695.05a12.546,12.546,0,0,1,3.251,7.156A10.8,10.8,0,0,1,691,691.993,12.551,12.551,0,0,1,698.245,695.05Z" transform="translate(-279.905 -379.683)" fill="#8fcae7"/>
    <path id="Path_22" data-name="Path 22" d="M66.579,445.139,64,440.842,88.07,420.21h61.895v6.017L127.614,450.3l-25.79,5.158Z" transform="translate(-24.106 -158.274)" fill="#3f3d56"/>
    <path id="Path_23" data-name="Path 23" d="M195.421,431.506v-13.45h-8.1V422.3l-2.551-2.9L164.135,440.03l-3.439,3.438-4.3,17.193,7.737,18.912h39.543V440.89Z" transform="translate(-58.908 -157.462)" fill="#ccc"/>
    <rect id="Rectangle_45" data-name="Rectangle 45" width="65.333" height="39.543" transform="translate(39.894 282.568)" fill="#f2f2f2"/>
    <rect id="Rectangle_46" data-name="Rectangle 46" width="13.754" height="12.035" transform="translate(82.446 295.032)" fill="#3f3d56"/>
    <rect id="Rectangle_47" data-name="Rectangle 47" width="12.035" height="27.508" transform="translate(64.824 294.603)" fill="#ccc"/>
    <path id="Path_24" data-name="Path 24" d="M78.812,476.913v-4.3H73.654v4.3h5.158Z" transform="translate(-27.742 -178.012)" fill="#3f3d56"/>
    <path id="Path_25" data-name="Path 25" d="M78.381,485.026H73.654v4.3h5.158v-4.3Z" transform="translate(-27.742 -182.687)" fill="#3f3d56"/>
    <rect id="Rectangle_48" data-name="Rectangle 48" width="5.158" height="4.298" transform="translate(54.508 294.603)" fill="#3f3d56"/>
    <rect id="Rectangle_49" data-name="Rectangle 49" width="5.158" height="4.298" transform="translate(54.508 302.339)" fill="#3f3d56"/>
    <path id="Path_26" data-name="Path 26" d="M195.343,477.6v-4.3h-5.158v4.3h5.158Z" transform="translate(-71.634 -178.272)" fill="#3f3d56"/>
    <path id="Path_27" data-name="Path 27" d="M194.913,485.716h-4.728v4.3h5.158v-4.3Z" transform="translate(-71.634 -182.947)" fill="#3f3d56"/>
    <rect id="Rectangle_50" data-name="Rectangle 50" width="5.158" height="4.298" transform="translate(127.148 295.032)" fill="#3f3d56"/>
    <rect id="Rectangle_51" data-name="Rectangle 51" width="5.158" height="4.298" transform="translate(127.148 302.769)" fill="#3f3d56"/>
    <path id="Path_28" data-name="Path 28" d="M465.579,445.139l-2.579-4.3,24.07-20.632h61.895v6.017L526.614,450.3l-25.79,5.158Z" transform="translate(-174.391 -158.274)" fill="#3f3d56"/>
    <path id="Path_29" data-name="Path 29" d="M594.421,431.506v-13.45h-8.1V422.3l-2.551-2.9L563.135,440.03l-3.439,3.438-4.3,17.193,7.737,18.912h39.543V440.89Z" transform="translate(-209.193 -157.462)" fill="#ccc"/>
    <rect id="Rectangle_52" data-name="Rectangle 52" width="65.333" height="39.543" transform="translate(288.609 282.568)" fill="#f2f2f2"/>
    <rect id="Rectangle_53" data-name="Rectangle 53" width="13.754" height="12.035" transform="translate(331.161 295.032)" fill="#3f3d56"/>
    <rect id="Rectangle_54" data-name="Rectangle 54" width="12.035" height="27.508" transform="translate(313.539 294.603)" fill="#ccc"/>
    <path id="Path_30" data-name="Path 30" d="M477.812,476.913v-4.3h-5.158v4.3h5.158Z" transform="translate(-178.027 -178.012)" fill="#3f3d56"/>
    <path id="Path_31" data-name="Path 31" d="M477.381,485.026h-4.727v4.3h5.158v-4.3Z" transform="translate(-178.027 -182.687)" fill="#3f3d56"/>
    <rect id="Rectangle_55" data-name="Rectangle 55" width="5.158" height="4.298" transform="translate(303.223 294.603)" fill="#3f3d56"/>
    <rect id="Rectangle_56" data-name="Rectangle 56" width="5.158" height="4.298" transform="translate(303.223 302.339)" fill="#3f3d56"/>
    <path id="Path_32" data-name="Path 32" d="M594.343,477.6v-4.3h-5.158v4.3h5.158Z" transform="translate(-221.919 -178.272)" fill="#3f3d56"/>
    <path id="Path_33" data-name="Path 33" d="M593.913,485.716h-4.728v4.3h5.158v-4.3Z" transform="translate(-221.919 -182.947)" fill="#3f3d56"/>
    <rect id="Rectangle_57" data-name="Rectangle 57" width="5.158" height="4.298" transform="translate(375.863 295.032)" fill="#3f3d56"/>
    <rect id="Rectangle_58" data-name="Rectangle 58" width="5.158" height="4.298" transform="translate(375.863 302.769)" fill="#3f3d56"/>
    <path id="Path_34" data-name="Path 34" d="M277.918,329.3l-4.3-3.439,24.07-21.491h61.034v18.912l-39.543,26.649Z" transform="translate(-103.06 -114.641)" fill="#3f3d56"/>
    <path id="Path_35" data-name="Path 35" d="M397.406,316.423V304.8h-8.1v2.847l-3.025-3.277-19.772,21.491-7.736,5.158-12,87.644,18.091,18.091h42.045V326.718Z" transform="translate(-130.614 -114.641)" fill="#ccc"/>
    <rect id="Rectangle_59" data-name="Rectangle 59" width="65.333" height="110.894" transform="translate(170.56 211.217)" fill="#f2f2f2"/>
    <rect id="Rectangle_60" data-name="Rectangle 60" width="12.035" height="27.079" transform="translate(195.919 295.032)" fill="#ccc"/>
    <path id="Path_36" data-name="Path 36" d="M290.5,483.119v-4.3h-5.158v4.3H290.5Z" transform="translate(-107.475 -180.35)" fill="#3f3d56"/>
    <path id="Path_37" data-name="Path 37" d="M290.07,491.232h-4.728v4.3H290.5v-4.3Z" transform="translate(-107.475 -185.025)" fill="#3f3d56"/>
    <rect id="Rectangle_61" data-name="Rectangle 61" width="5.158" height="4.298" transform="translate(186.463 298.471)" fill="#3f3d56"/>
    <rect id="Rectangle_62" data-name="Rectangle 62" width="5.158" height="4.298" transform="translate(186.463 306.207)" fill="#3f3d56"/>
    <path id="Path_38" data-name="Path 38" d="M347.042,483.119v-4.3h-5.158v4.3h5.158Z" transform="translate(-128.772 -180.35)" fill="#3f3d56"/>
    <path id="Path_39" data-name="Path 39" d="M346.612,491.232h-4.728v4.3h5.158v-4.3Z" transform="translate(-128.772 -185.025)" fill="#3f3d56"/>
    <rect id="Rectangle_63" data-name="Rectangle 63" width="5.158" height="4.298" transform="translate(221.708 298.471)" fill="#3f3d56"/>
    <rect id="Rectangle_64" data-name="Rectangle 64" width="5.158" height="4.298" transform="translate(221.708 306.207)" fill="#3f3d56"/>
    <path id="Path_40" data-name="Path 40" d="M404.963,345.211v-4.3H399.8v4.3h5.158Z" transform="translate(-150.588 -128.406)" fill="#3f3d56"/>
    <path id="Path_41" data-name="Path 41" d="M404.533,353.325H399.8v4.3h5.158v-4.3Z" transform="translate(-150.588 -133.081)" fill="#3f3d56"/>
    <rect id="Rectangle_65" data-name="Rectangle 65" width="5.158" height="4.298" transform="translate(257.813 212.507)" fill="#3f3d56"/>
    <rect id="Rectangle_66" data-name="Rectangle 66" width="5.158" height="4.298" transform="translate(257.813 220.244)" fill="#3f3d56"/>
    <path id="Path_42" data-name="Path 42" d="M404.963,383.826v-4.3H399.8v4.3h5.158Z" transform="translate(-150.588 -142.95)" fill="#3f3d56"/>
    <path id="Path_43" data-name="Path 43" d="M404.533,391.939H399.8v4.3h5.158v-4.3Z" transform="translate(-150.588 -147.625)" fill="#3f3d56"/>
    <rect id="Rectangle_67" data-name="Rectangle 67" width="5.158" height="4.298" transform="translate(257.813 236.577)" fill="#3f3d56"/>
    <rect id="Rectangle_68" data-name="Rectangle 68" width="5.158" height="4.298" transform="translate(257.813 244.314)" fill="#3f3d56"/>
    <path id="Path_44" data-name="Path 44" d="M404.963,422.44v-4.3H399.8v4.3h5.158Z" transform="translate(-150.588 -157.495)" fill="#3f3d56"/>
    <path id="Path_45" data-name="Path 45" d="M404.533,430.553H399.8v4.3h5.158v-4.3Z" transform="translate(-150.588 -162.17)" fill="#3f3d56"/>
    <rect id="Rectangle_69" data-name="Rectangle 69" width="5.158" height="4.298" transform="translate(257.813 260.647)" fill="#3f3d56"/>
    <rect id="Rectangle_70" data-name="Rectangle 70" width="5.158" height="4.298" transform="translate(257.813 268.384)" fill="#3f3d56"/>
    <path id="Path_46" data-name="Path 46" d="M404.963,461.054v-4.3H399.8v4.3h5.158Z" transform="translate(-150.588 -172.039)" fill="#3f3d56"/>
    <path id="Path_47" data-name="Path 47" d="M404.533,469.167H399.8v4.3h5.158v-4.3Z" transform="translate(-150.588 -176.714)" fill="#3f3d56"/>
    <rect id="Rectangle_71" data-name="Rectangle 71" width="5.158" height="4.298" transform="translate(257.813 284.716)" fill="#3f3d56"/>
    <rect id="Rectangle_72" data-name="Rectangle 72" width="5.158" height="4.298" transform="translate(257.813 292.453)" fill="#3f3d56"/>
    <rect id="Rectangle_73" data-name="Rectangle 73" width="49.859" height="10.316" transform="translate(177.867 216.805)" fill="#3f3d56"/>
    <rect id="Rectangle_74" data-name="Rectangle 74" width="49.859" height="10.316" transform="translate(177.867 237.436)" fill="#3f3d56"/>
    <rect id="Rectangle_75" data-name="Rectangle 75" width="49.859" height="10.316" transform="translate(177.867 258.068)" fill="#3f3d56"/>
    <rect id="Rectangle_76" data-name="Rectangle 76" width="49.859" height="10.316" transform="translate(177.867 278.699)" fill="#3f3d56"/>
    <path id="Path_48" data-name="Path 48" d="M680.918,329.3l-4.3-3.439,24.07-21.491h61.034v18.912l-39.543,26.649Z" transform="translate(-254.852 -114.641)" fill="#3f3d56"/>
    <path id="Path_49" data-name="Path 49" d="M800.406,316.423V304.8h-8.1v2.847l-3.024-3.277-19.772,21.491-7.736,5.158-12,87.644,18.091,18.091h42.045V326.718Z" transform="translate(-282.405 -114.641)" fill="#ccc"/>
    <rect id="Rectangle_77" data-name="Rectangle 77" width="65.333" height="110.894" transform="translate(421.768 211.217)" fill="#f2f2f2"/>
    <rect id="Rectangle_78" data-name="Rectangle 78" width="12.035" height="27.079" transform="translate(447.127 295.032)" fill="#ccc"/>
    <path id="Path_50" data-name="Path 50" d="M693.5,483.119v-4.3h-5.158v4.3H693.5Z" transform="translate(-259.267 -180.35)" fill="#3f3d56"/>
    <path id="Path_51" data-name="Path 51" d="M693.07,491.232h-4.728v4.3H693.5v-4.3Z" transform="translate(-259.267 -185.025)" fill="#3f3d56"/>
    <rect id="Rectangle_79" data-name="Rectangle 79" width="5.158" height="4.298" transform="translate(437.671 298.471)" fill="#3f3d56"/>
    <rect id="Rectangle_80" data-name="Rectangle 80" width="5.158" height="4.298" transform="translate(437.671 306.207)" fill="#3f3d56"/>
    <path id="Path_52" data-name="Path 52" d="M750.042,483.119v-4.3h-5.158v4.3h5.158Z" transform="translate(-280.564 -180.35)" fill="#3f3d56"/>
    <path id="Path_53" data-name="Path 53" d="M749.612,491.232h-4.728v4.3h5.158v-4.3Z" transform="translate(-280.564 -185.025)" fill="#3f3d56"/>
    <rect id="Rectangle_81" data-name="Rectangle 81" width="5.158" height="4.298" transform="translate(472.917 298.471)" fill="#3f3d56"/>
    <rect id="Rectangle_82" data-name="Rectangle 82" width="5.158" height="4.298" transform="translate(472.917 306.207)" fill="#3f3d56"/>
    <path id="Path_54" data-name="Path 54" d="M807.963,345.211v-4.3h-5.158v4.3h5.158Z" transform="translate(-302.38 -128.406)" fill="#3f3d56"/>
    <path id="Path_55" data-name="Path 55" d="M807.533,353.325h-4.728v4.3h5.158v-4.3Z" transform="translate(-302.38 -133.081)" fill="#3f3d56"/>
    <rect id="Rectangle_83" data-name="Rectangle 83" width="5.158" height="4.298" transform="translate(509.022 212.507)" fill="#3f3d56"/>
    <rect id="Rectangle_84" data-name="Rectangle 84" width="5.158" height="4.298" transform="translate(509.022 220.244)" fill="#3f3d56"/>
    <path id="Path_56" data-name="Path 56" d="M807.963,383.826v-4.3h-5.158v4.3h5.158Z" transform="translate(-302.38 -142.95)" fill="#3f3d56"/>
    <path id="Path_57" data-name="Path 57" d="M807.533,391.939h-4.728v4.3h5.158v-4.3Z" transform="translate(-302.38 -147.625)" fill="#3f3d56"/>
    <rect id="Rectangle_85" data-name="Rectangle 85" width="5.158" height="4.298" transform="translate(509.022 236.577)" fill="#3f3d56"/>
    <rect id="Rectangle_86" data-name="Rectangle 86" width="5.158" height="4.298" transform="translate(509.022 244.314)" fill="#3f3d56"/>
    <path id="Path_58" data-name="Path 58" d="M807.963,422.44v-4.3h-5.158v4.3h5.158Z" transform="translate(-302.38 -157.495)" fill="#3f3d56"/>
    <path id="Path_59" data-name="Path 59" d="M807.533,430.553h-4.728v4.3h5.158v-4.3Z" transform="translate(-302.38 -162.17)" fill="#3f3d56"/>
    <rect id="Rectangle_87" data-name="Rectangle 87" width="5.158" height="4.298" transform="translate(509.022 260.647)" fill="#3f3d56"/>
    <rect id="Rectangle_88" data-name="Rectangle 88" width="5.158" height="4.298" transform="translate(509.022 268.384)" fill="#3f3d56"/>
    <path id="Path_60" data-name="Path 60" d="M807.963,461.054v-4.3h-5.158v4.3h5.158Z" transform="translate(-302.38 -172.039)" fill="#3f3d56"/>
    <path id="Path_61" data-name="Path 61" d="M807.533,469.167h-4.728v4.3h5.158v-4.3Z" transform="translate(-302.38 -176.714)" fill="#3f3d56"/>
    <rect id="Rectangle_89" data-name="Rectangle 89" width="5.158" height="4.298" transform="translate(509.022 284.716)" fill="#3f3d56"/>
    <rect id="Rectangle_90" data-name="Rectangle 90" width="5.158" height="4.298" transform="translate(509.022 292.453)" fill="#3f3d56"/>
    <rect id="Rectangle_91" data-name="Rectangle 91" width="49.859" height="10.316" transform="translate(429.075 216.805)" fill="#3f3d56"/>
    <rect id="Rectangle_92" data-name="Rectangle 92" width="49.859" height="10.316" transform="translate(429.075 237.436)" fill="#3f3d56"/>
    <rect id="Rectangle_93" data-name="Rectangle 93" width="49.859" height="10.316" transform="translate(429.075 258.068)" fill="#3f3d56"/>
    <rect id="Rectangle_94" data-name="Rectangle 94" width="49.859" height="10.316" transform="translate(429.075 278.699)" fill="#3f3d56"/>
    <path id="Path_62" data-name="Path 62" d="M901.918,329.3l-4.3-3.439,24.07-21.491h61.036v18.912l-39.544,26.649Z" transform="translate(-338.092 -114.641)" fill="#3f3d56"/>
    <path id="Path_63" data-name="Path 63" d="M1021.406,316.423V304.8h-8.1v2.847l-3.023-3.277-19.773,21.491-7.737,5.158-12,87.644,18.091,18.091h42.047V326.718Z" transform="translate(-365.646 -114.641)" fill="#ccc"/>
    <rect id="Rectangle_95" data-name="Rectangle 95" width="65.333" height="110.894" transform="translate(559.528 211.217)" fill="#f2f2f2"/>
    <rect id="Rectangle_96" data-name="Rectangle 96" width="12.035" height="27.079" transform="translate(584.887 295.032)" fill="#ccc"/>
    <path id="Path_64" data-name="Path 64" d="M914.5,483.119v-4.3h-5.158v4.3H914.5Z" transform="translate(-342.508 -180.35)" fill="#3f3d56"/>
    <path id="Path_65" data-name="Path 65" d="M914.07,491.232h-4.728v4.3H914.5v-4.3Z" transform="translate(-342.508 -185.025)" fill="#3f3d56"/>
    <rect id="Rectangle_97" data-name="Rectangle 97" width="5.158" height="4.298" transform="translate(575.43 298.471)" fill="#3f3d56"/>
    <rect id="Rectangle_98" data-name="Rectangle 98" width="5.158" height="4.298" transform="translate(575.43 306.207)" fill="#3f3d56"/>
    <path id="Path_66" data-name="Path 66" d="M971.042,483.119v-4.3h-5.158v4.3h5.158Z" transform="translate(-363.804 -180.35)" fill="#3f3d56"/>
    <path id="Path_67" data-name="Path 67" d="M970.612,491.232h-4.728v4.3h5.158v-4.3Z" transform="translate(-363.804 -185.025)" fill="#3f3d56"/>
    <rect id="Rectangle_99" data-name="Rectangle 99" width="5.158" height="4.298" transform="translate(610.676 298.471)" fill="#3f3d56"/>
    <rect id="Rectangle_100" data-name="Rectangle 100" width="5.158" height="4.298" transform="translate(610.676 306.207)" fill="#3f3d56"/>
    <path id="Path_68" data-name="Path 68" d="M1028.961,345.211v-4.3H1023.8v4.3h5.161Z" transform="translate(-385.619 -128.406)" fill="#3f3d56"/>
    <path id="Path_69" data-name="Path 69" d="M1028.531,353.325H1023.8v4.3h5.161v-4.3Z" transform="translate(-385.619 -133.081)" fill="#3f3d56"/>
    <rect id="Rectangle_101" data-name="Rectangle 101" width="5.158" height="4.298" transform="translate(646.784 212.507)" fill="#3f3d56"/>
    <rect id="Rectangle_102" data-name="Rectangle 102" width="5.158" height="4.298" transform="translate(646.784 220.244)" fill="#3f3d56"/>
    <path id="Path_70" data-name="Path 70" d="M1028.961,383.826v-4.3H1023.8v4.3h5.161Z" transform="translate(-385.619 -142.95)" fill="#3f3d56"/>
    <path id="Path_71" data-name="Path 71" d="M1028.531,391.939H1023.8v4.3h5.161v-4.3Z" transform="translate(-385.619 -147.625)" fill="#3f3d56"/>
    <rect id="Rectangle_103" data-name="Rectangle 103" width="5.158" height="4.298" transform="translate(646.784 236.577)" fill="#3f3d56"/>
    <rect id="Rectangle_104" data-name="Rectangle 104" width="5.158" height="4.298" transform="translate(646.784 244.314)" fill="#3f3d56"/>
    <path id="Path_72" data-name="Path 72" d="M1028.961,422.44v-4.3H1023.8v4.3h5.161Z" transform="translate(-385.619 -157.495)" fill="#3f3d56"/>
    <path id="Path_73" data-name="Path 73" d="M1028.531,430.553H1023.8v4.3h5.161v-4.3Z" transform="translate(-385.619 -162.17)" fill="#3f3d56"/>
    <rect id="Rectangle_105" data-name="Rectangle 105" width="5.158" height="4.298" transform="translate(646.784 260.647)" fill="#3f3d56"/>
    <rect id="Rectangle_106" data-name="Rectangle 106" width="5.158" height="4.298" transform="translate(646.784 268.384)" fill="#3f3d56"/>
    <path id="Path_74" data-name="Path 74" d="M1028.961,461.054v-4.3H1023.8v4.3h5.161Z" transform="translate(-385.619 -172.039)" fill="#3f3d56"/>
    <path id="Path_75" data-name="Path 75" d="M1028.531,469.167H1023.8v4.3h5.161v-4.3Z" transform="translate(-385.619 -176.714)" fill="#3f3d56"/>
    <rect id="Rectangle_107" data-name="Rectangle 107" width="5.158" height="4.298" transform="translate(646.784 284.716)" fill="#3f3d56"/>
    <rect id="Rectangle_108" data-name="Rectangle 108" width="5.158" height="4.298" transform="translate(646.784 292.453)" fill="#3f3d56"/>
    <rect id="Rectangle_109" data-name="Rectangle 109" width="49.859" height="10.316" transform="translate(566.834 216.805)" fill="#3f3d56"/>
    <rect id="Rectangle_110" data-name="Rectangle 110" width="49.859" height="10.316" transform="translate(566.834 237.436)" fill="#3f3d56"/>
    <rect id="Rectangle_111" data-name="Rectangle 111" width="49.859" height="10.316" transform="translate(566.834 258.068)" fill="#3f3d56"/>
    <rect id="Rectangle_112" data-name="Rectangle 112" width="49.859" height="10.316" transform="translate(566.834 278.699)" fill="#3f3d56"/>
    <rect id="Rectangle_113" data-name="Rectangle 113" width="708.744" height="1.247" transform="translate(0 321.682)" fill="#3f3d56"/>
    <rect id="Rectangle_114" data-name="Rectangle 114" width="1.247" height="49.244" transform="translate(157.083 272.438)" fill="#3f3d56"/>
    <path id="Path_76" data-name="Path 76" d="M289.239,619.29c.079,17.22-12.035,31.235-12.035,31.235s-12.244-13.9-12.323-31.123,12.035-31.235,12.035-31.235S289.16,602.071,289.239,619.29Z" transform="translate(-119.404 -340.577)" fill="#8fcae7"/>
    <rect id="Rectangle_115" data-name="Rectangle 115" width="1.247" height="49.244" transform="translate(281.752 272.438)" fill="#3f3d56"/>
    <path id="Path_77" data-name="Path 77" d="M489.239,619.29c.079,17.22-12.036,31.235-12.036,31.235s-12.244-13.9-12.323-31.123,12.035-31.235,12.035-31.235S489.16,602.071,489.239,619.29Z" transform="translate(-194.735 -340.577)" fill="#8fcae7"/>
    <rect id="Rectangle_116" data-name="Rectangle 116" width="1.247" height="49.244" transform="translate(530.467 272.438)" fill="#3f3d56"/>
    <path id="Path_78" data-name="Path 78" d="M888.239,619.29c.079,17.22-12.036,31.235-12.036,31.235s-12.243-13.9-12.323-31.123,12.036-31.235,12.036-31.235S888.16,602.071,888.239,619.29Z" transform="translate(-345.02 -340.577)" fill="#8fcae7"/>
    <ellipse id="Ellipse_6" data-name="Ellipse 6" cx="23.687" cy="5.33" rx="23.687" ry="5.33" transform="translate(342.528 96.588)" fill="#8fcae7"/>
    <path id="Path_79" data-name="Path 79" d="M628.854,218.4c0,15.148-27.427,57.971-27.427,57.971S574,233.547,574,218.4a27.427,27.427,0,1,1,54.854,0Z" transform="translate(-235.835 -190.972)" fill="#8fcae7"/>
    <circle id="Ellipse_7" data-name="Ellipse 7" cx="15.584" cy="15.584" r="15.584" transform="translate(350.009 11.844)" fill="#f2f2f2"/>
  </g>
</svg>
