<svg id="Group_65" data-name="Group 65" xmlns="http://www.w3.org/2000/svg" width="742.597" height="517.542" viewBox="0 0 742.597 517.542">
  <path id="Path_80" data-name="Path 80" d="M195.992,26.994l3.244,267.639,140.18,68.283L336.172,95.277Z" transform="translate(-40.762 -5.614)" fill="#f2f2f2"/>
  <path id="Path_81" data-name="Path 81" d="M114.7,0,9.957,215.035l142.125,69.231L148.838,16.628Z" transform="translate(-2.071)" fill="#f2f2f2"/>
  <path id="Path_82" data-name="Path 82" d="M863.308,345.227,580.4,207.422l3.244,267.638,174.915,85.2Z" transform="translate(-120.711 -43.139)" fill="#f2f2f2"/>
  <path id="Path_83" data-name="Path 83" d="M388.982,113.208l3.244,267.638L532.407,449.13l-3.244-267.638Z" transform="translate(-80.9 -23.545)" fill="#f2f2f2"/>
  <path id="Path_84" data-name="Path 84" d="M580.662,504.558l-3.96,88.706s10.3,83.954,7.92,86.33-8.712,7.128-3.96,12.672,22.177,9.5,22.969,6.336,2.376-93.458,2.376-93.458l5.544-106.923Z" transform="translate(-223.856 -201.258)" fill="#2f2e41"/>
  <path id="Path_85" data-name="Path 85" d="M580.662,504.558l-3.96,88.706s10.3,83.954,7.92,86.33-8.712,7.128-3.96,12.672,22.177,9.5,22.969,6.336,2.376-93.458,2.376-93.458l5.544-106.923Z" transform="translate(-223.856 -201.258)" opacity="0.2"/>
  <path id="Path_86" data-name="Path 86" d="M577.193,741.222s-19.8,15.048-22.177,15.048-23.761,7.128-8.712,10.3,51.481,1.584,52.273-3.168-2.376-19.174-2.376-19.174Z" transform="translate(-216.427 -251.797)" fill="#2f2e41"/>
  <path id="Path_87" data-name="Path 87" d="M577.193,741.222s-19.8,15.048-22.177,15.048-23.761,7.128-8.712,10.3,51.481,1.584,52.273-3.168-2.376-19.174-2.376-19.174Z" transform="translate(-216.427 -251.797)" opacity="0.2"/>
  <path id="Path_88" data-name="Path 88" d="M517.576,422.222s-8.712,3.168-8.712,5.544-7.92,32.473-9.5,34.057-2.376,8.712-2.376,8.712-7.92,18.216-6.336,18.216,15.048-3.168,15.84,0,7.128-19.8,7.128-19.8l13.464-26.929Z" transform="translate(-205.915 -185.452)" fill="#8fcae7"/>
  <path id="Path_89" data-name="Path 89" d="M490.7,509.39s2.376,17.424,8.712,19.008,0-22.177,0-22.177Z" transform="translate(-205.97 -202.922)" fill="#ffb8b8"/>
  <path id="Path_90" data-name="Path 90" d="M516.7,407.136s4.752,10.3,7.128,15.84,24.553-14.256,24.553-14.256-11.88-8.712-11.88-12.672S516.7,407.136,516.7,407.136Z" transform="translate(-211.378 -179.87)" fill="#ffb8b8"/>
  <path id="Path_91" data-name="Path 91" d="M227.82,724.956c5.312,19.635,23.5,31.795,23.5,31.795s9.582-19.674,4.27-39.309-23.5-31.795-23.5-31.795S222.509,705.321,227.82,724.956Z" transform="translate(-150.963 -240.238)" fill="#3f3d56"/>
  <path id="Path_92" data-name="Path 92" d="M228.53,725.911c14.575,14.188,16.355,36,16.355,36s-21.851-1.193-36.426-15.381-16.355-36-16.355-36S213.955,711.723,228.53,725.911Z" transform="translate(-143.868 -245.414)" fill="#8fcae7"/>
  <path id="Path_93" data-name="Path 93" d="M447.776,738.37A72.074,72.074,0,1,1,519.85,666.3,72.074,72.074,0,0,1,447.776,738.37Zm0-142.564a70.49,70.49,0,1,0,70.49,70.49,70.49,70.49,0,0,0-70.49-70.49Z" transform="translate(-182.053 -221.224)" fill="#2f2e41"/>
  <path id="Path_94" data-name="Path 94" d="M727.776,738.37A72.074,72.074,0,1,1,799.85,666.3,72.074,72.074,0,0,1,727.776,738.37Zm0-142.564a70.49,70.49,0,1,0,70.49,70.49A70.49,70.49,0,0,0,727.776,595.806Z" transform="translate(-240.287 -221.224)" fill="#2f2e41"/>
  <circle id="Ellipse_8" data-name="Ellipse 8" cx="4.752" cy="4.752" r="4.752" transform="translate(260.971 440.32)" fill="#2f2e41"/>
  <circle id="Ellipse_9" data-name="Ellipse 9" cx="4.752" cy="4.752" r="4.752" transform="translate(484.321 440.32)" fill="#2f2e41"/>
  <path id="Path_95" data-name="Path 95" d="M344.037,527.671l-1.457-.622,41.4-97.119,117.385,2.4.227.356,57.818,90.29-1.334.855-57.59-89.934-115.469-2.357Z" transform="translate(-71.249 -89.416)" fill="#2f2e41"/>
  <path id="Path_96" data-name="Path 96" d="M500.125,547.956l30.424-107.284,1.524.432L502.3,546.081l79.6-10.145.2,1.572Z" transform="translate(-104.015 -91.65)" fill="#2f2e41"/>
  <rect id="Rectangle_117" data-name="Rectangle 117" width="1.584" height="116.495" transform="translate(308.72 365.629) rotate(-44.449)" fill="#2f2e41"/>
  <rect id="Rectangle_118" data-name="Rectangle 118" width="18.061" height="1.584" transform="translate(429.702 341.107) rotate(-74.77)" fill="#2f2e41"/>
  <path id="Path_97" data-name="Path 97" d="M395.569,417.049l-1.546-.351,3.741-16.457H384.5v-10.3h1.584v8.712h13.665Z" transform="translate(-79.968 -81.1)" fill="#2f2e41"/>
  <path id="Path_98" data-name="Path 98" d="M643.7,511.423s0-4.752,10.3-2.376,41.977,8.712,44.353,7.92,1.584,4.752-8.712,7.128-22.177-3.168-24.553-4.752S643.7,511.423,643.7,511.423Z" transform="translate(-237.791 -203.371)" fill="#2f2e41"/>
  <rect id="Rectangle_119" data-name="Rectangle 119" width="20.593" height="7.92" transform="translate(356.806 449.825)" fill="#8fcae7"/>
  <path id="Path_99" data-name="Path 99" d="M628.542,709.9a15.84,15.84,0,1,1,15.84-15.84A15.84,15.84,0,0,1,628.542,709.9Zm0-30.1A14.256,14.256,0,1,0,642.8,694.062a14.256,14.256,0,0,0-14.256-14.256Z" transform="translate(-231.343 -238.694)" fill="#2f2e41"/>
  <circle id="Ellipse_10" data-name="Ellipse 10" cx="19.009" cy="19.009" r="19.009" transform="translate(293.444 197.17)" fill="#ffb8b8"/>
  <path id="Path_100" data-name="Path 100" d="M587.557,505.357s-54.649,31.681-53.857,41.977,41.977,66.53,41.977,66.53,3.168,16.632,6.336,16.632,22.969,7.128,23.761,2.376-6.336-10.3-5.544-13.464-34.849-60.986-34.849-60.986,76.277-28.513,60.315-53.065S587.557,505.357,587.557,505.357Z" transform="translate(-214.911 -200.472)" fill="#2f2e41"/>
  <path id="Path_101" data-name="Path 101" d="M594.8,662.222s-9.5,2.376-11.088,5.544-29.3,13.464-21.385,15.84,53.857,3.168,55.442,1.584,0-19.969-6.336-19.885S597.97,667.766,594.8,662.222Z" transform="translate(-220.572 -235.367)" fill="#2f2e41"/>
  <path id="Path_102" data-name="Path 102" d="M523.83,427.113l17.82-21.781s20.2-5.94,28.909,5.94,32.473,41.185,40.393,47.521S629.961,489.682,626,490.474s-26.137-8.712-34.849-2.376-25.345,7.128-26.137,3.96S516.7,435.825,516.7,428.7s5.064-8.658,5.064-8.658Z" transform="translate(-211.378 -181.63)" fill="#8fcae7"/>
  <rect id="Rectangle_120" data-name="Rectangle 120" width="30.097" height="4.752" rx="2.376" transform="matrix(0.943, 0.333, -0.333, 0.943, 295.89, 299.209)" fill="#2f2e41"/>
  <path id="Path_103" data-name="Path 103" d="M463.009,500.222s-27.721,7.92-25.345,16.632,27.721-10.3,27.721-10.3Z" transform="translate(-194.909 -201.674)" fill="#ffb8b8"/>
  <path id="Path_104" data-name="Path 104" d="M540.464,413.148s-11.088,9.5-13.464,20.593-14.256,30.889-14.256,30.889L464.43,480.47s-3.168,15.048,1.584,15.048,57.818-11.088,59.4-13.464,35.641-47.521,35.641-47.521S564.225,409.98,540.464,413.148Z" transform="translate(-200.291 -183.506)" fill="#8fcae7"/>
  <path id="Path_105" data-name="Path 105" d="M508.081,367.414a3.749,3.749,0,0,1-1.633.819,1.165,1.165,0,0,1-1.35-.935,4.84,4.84,0,0,1-1.852,2.376c-.907.473-2.309.076-2.44-.938a4.281,4.281,0,0,1-.985,2.08,1.476,1.476,0,0,1-2.074.069,53.306,53.306,0,0,1,.277,6.606c.125,2.2.712,4.539,2.377,5.987,2.427,2.113,6.078,1.591,9.271,1.191a2.815,2.815,0,0,1,1.453.079c1.2.509,1.141,2.174,1.157,3.473a9.651,9.651,0,0,0,8.45,9.164,4.838,4.838,0,0,0,3.6-.877c.907-.768,1.37-2.021,2.409-2.6,1.69-.939,3.739.43,4.975,1.917s2.453,3.316,4.367,3.588c2.531.36,4.459-2.22,5.405-4.6a26.788,26.788,0,0,0-.532-20.814C535.665,362.485,517.609,360.663,508.081,367.414Z" transform="translate(-207.435 -173.237)" fill="#2f2e41"/>
  <path id="Path_106" data-name="Path 106" d="M924.2,729.6l-1.408-.727c18.281-35.343,8.506-81.242-2.914-113.522a347.931,347.931,0,0,0-29.525-62.312l1.339-.846a349.709,349.709,0,0,1,29.679,62.629C932.9,647.393,942.744,693.749,924.2,729.6Z" transform="translate(-289.09 -212.482)" fill="#2f2e41"/>
  <rect id="Rectangle_121" data-name="Rectangle 121" width="57.168" height="1.584" transform="translate(638.395 396.227) rotate(-79.645)" fill="#2f2e41"/>
  <rect id="Rectangle_122" data-name="Rectangle 122" width="1.585" height="77.896" transform="matrix(0.732, -0.681, 0.681, 0.732, 579.18, 388.981)" fill="#2f2e41"/>
  <rect id="Rectangle_123" data-name="Rectangle 123" width="45.944" height="1.584" transform="matrix(0.586, -0.81, 0.81, 0.586, 648.823, 487.781)" fill="#2f2e41"/>
  <circle id="Ellipse_11" data-name="Ellipse 11" cx="7.92" cy="7.92" r="7.92" transform="translate(645.498 309.241)" fill="#8fcae7"/>
  <circle id="Ellipse_12" data-name="Ellipse 12" cx="7.92" cy="7.92" r="7.92" transform="translate(559.167 370.227)" fill="#3f3d56"/>
  <circle id="Ellipse_13" data-name="Ellipse 13" cx="7.92" cy="7.92" r="7.92" transform="translate(594.016 378.147)" fill="#3f3d56"/>
  <circle id="Ellipse_14" data-name="Ellipse 14" cx="7.92" cy="7.92" r="7.92" transform="translate(578.176 409.036)" fill="#8fcae7"/>
  <circle id="Ellipse_15" data-name="Ellipse 15" cx="7.92" cy="7.92" r="7.92" transform="translate(677.178 428.836)" fill="#3f3d56"/>
  <circle id="Ellipse_16" data-name="Ellipse 16" cx="7.92" cy="7.92" r="7.92" transform="translate(651.042 437.548)" fill="#3f3d56"/>
  <circle id="Ellipse_17" data-name="Ellipse 17" cx="7.92" cy="7.92" r="7.92" transform="translate(669.258 462.893)" fill="#3f3d56"/>
  <circle id="Ellipse_18" data-name="Ellipse 18" cx="7.92" cy="7.92" r="7.92" transform="translate(586.096 318.745)" fill="#3f3d56"/>
  <rect id="Rectangle_124" data-name="Rectangle 124" width="715.195" height="1.584" transform="translate(0 515.958)" fill="#2f2e41"/>
  <rect id="Rectangle_125" data-name="Rectangle 125" width="77.618" height="77.618" transform="translate(55.493 313.145) rotate(30)" fill="#f2f2f2"/>
  <path id="Path_107" data-name="Path 107" d="M234.626,660.434a17.424,17.424,0,1,1,17.424-17.424A17.424,17.424,0,0,1,234.626,660.434Zm0-33.265a15.84,15.84,0,1,0,15.84,15.84,15.84,15.84,0,0,0-15.84-15.84Z" transform="translate(-149.088 -227.747)" fill="#3f3d56"/>
</svg>
